<?xml version="1.0" encoding="utf-8"?>
<!-- Generator: Adobe Illustrator 16.0.0, SVG Export Plug-In . SVG Version: 6.00 Build 0)  -->
<!DOCTYPE svg PUBLIC "-//W3C//DTD SVG 1.1//EN" "http://www.w3.org/Graphics/SVG/1.1/DTD/svg11.dtd">
<svg version="1.1" id="Layer_1" xmlns="http://www.w3.org/2000/svg" xmlns:xlink="http://www.w3.org/1999/xlink" x="0px" y="0px"
	 width="300px" height="662.167px" viewBox="0 28.833 300 662.167" enable-background="new 0 28.833 300 662.167"
	 xml:space="preserve">
<path fill="#FCC25B" d="M69.212,555.929c21.127,41.203,47.144,64.292,73.315,65.049c21.362,0.622,42.36-13.135,63.499-21.362
	c21.14-8.219,43.453-10.549,63.123,11.682C282.596,626.494,294.402,655.821,300,691H0V432.494
	c10.787,5.186,21.218,19.261,30.213,36.539C43.966,495.449,55.533,529.25,69.212,555.929z"/>
<g>
	<path opacity="0.65" fill="#FFD47D" enable-background="new    " d="M0,29.777c0.773,9.367,6.924,18.548,17.284,25.061
		c13.753,8.645,34.477,12.313,53.163,9.41c17.081-2.653,31.721-10.25,48.914-12.565c20.58-2.77,41.725,2.448,59.633,9.495
		c17.91,7.047,34.054,16.007,52.906,21.93c12.812,4.024,28.582,6.454,40.955,1.789c8.615-3.249,13.795-9.325,17.111-15.428
		c6.885-12.668,7.426-26.197,6.26-39.689H0V29.777z"/>
</g>
<path fill="#FCBA4F" d="M211.059,41.701c0.895,4.659,4.627,8.951,9.889,11.371c10.744,4.938,26.039,2.018,35.486,8.325
	c7.014,4.685,8.063,12.709,13.139,18.687c4.009,4.718,10.664,8.059,17.9,8.982c4.174,0.533,8.502,0.254,12.527-0.74V29.777h-84.971
	C211.751,33.148,210.259,37.533,211.059,41.701z"/>
<path fill="#FFA515" d="M55.22,640.844c12.406,4.814,22.317,12.608,33.036,19.407c10.719,6.796,23.254,12.894,37.15,13.171
	c10.755,0.216,22.413-2.962,31.754,1.136c7.168,3.146,10.419,10.535,7.643,16.441H0v-50.646c0.265-0.096,0.521-0.204,0.788-0.299
	C17.849,634.043,38.467,634.342,55.22,640.844z"/>
</svg>
